HIERARCHY
ROOT Hips
{
	OFFSET 0.00000 0.00000 0.00000
	CHANNELS 6 Xposition Yposition Zposition Zrotation Yrotation Xrotation 
	JOINT LHipJoint
	{
		OFFSET 0 0 0
		CHANNELS 3 Zrotation Yrotation Xrotation
		JOINT LeftHip
		{
			OFFSET 1.38280 -1.96574 0.54427
			CHANNELS 3 Zrotation Yrotation Xrotation
			JOINT LeftKnee
			{
				OFFSET 2.72096 -7.47578 0.00000
				CHANNELS 3 Zrotation Yrotation Xrotation
				JOINT LeftAnkle
				{
					OFFSET 2.73041 -7.50176 0.00000
					CHANNELS 3 Zrotation Yrotation Xrotation
					JOINT LeftToe
					{
						OFFSET 0.16150 -0.44371 2.18031
						CHANNELS 3 Zrotation Yrotation Xrotation
						End Site
						{
							OFFSET 0.00000 -0.00000 1.12127
						}
					}
				}
			}
		}
	}
	JOINT RHipJoint
	{
		OFFSET 0 0 0
		CHANNELS 3 Zrotation Yrotation Xrotation
		JOINT RightHip
		{
			OFFSET -1.57224 -1.96575 0.54427
			CHANNELS 3 Zrotation Yrotation Xrotation
			JOINT RightKnee
			{
				OFFSET -2.95935 -8.13076 0.00000
				CHANNELS 3 Zrotation Yrotation Xrotation
				JOINT RightAnkle
				{
					OFFSET -2.52345 -6.93311 0.00000
					CHANNELS 3 Zrotation Yrotation Xrotation
					JOINT RightToe
					{
						OFFSET -0.04475 -0.10171 1.86688
						CHANNELS 3 Zrotation Yrotation Xrotation
						End Site
						{
							OFFSET -0.00000 -0.00000 0.95157
						}
					}
				}
			}
		}
	}
	JOINT lowerback
	{
		OFFSET 0 0 0
		CHANNELS 3 Zrotation Yrotation Xrotation
		JOINT Chest
		{
			OFFSET 0.00669 2.07367 0.09104
			CHANNELS 3 Zrotation Yrotation Xrotation
			JOINT Chest2
			{
				OFFSET -0.00664 2.06198 -0.04732
				CHANNELS 3 Zrotation Yrotation Xrotation
				JOINT lowerneck
				{
					OFFSET 0 0 0
					CHANNELS 3 Zrotation Yrotation Xrotation
					JOINT Neck
					{
						OFFSET -0.00021 1.49948 0.16345
						CHANNELS 3 Zrotation Yrotation Xrotation
						JOINT Head
						{
							OFFSET 0.06080 1.50567 -0.26702
							CHANNELS 3 Zrotation Yrotation Xrotation
							End Site
							{
								OFFSET 0.01726 1.56470 -0.11854
							}
						}
					}
				}
				JOINT LeftCollar
				{
					OFFSET 0 0 0
					CHANNELS 3 Zrotation Yrotation Xrotation
					JOINT LeftShoulder
					{
						OFFSET 3.14993 0.82932 -0.22488
CHANNELS 3 Zrotation Xrotation Yrotation
						JOINT LeftElbow
						{
OFFSET 0 -5.682360 -0.000000
CHANNELS 3 Zrotation Xrotation Yrotation
							JOINT LeftWrist
							{
OFFSET 0 -3.171120 0.000000
CHANNELS 3 Zrotation Xrotation Yrotation
								JOINT lhand
								{
									OFFSET 0 0 0
CHANNELS 3 Zrotation Xrotation Yrotation
									JOINT LFingers
									{
OFFSET 0 -0.632690 0.000000
CHANNELS 3 Zrotation Xrotation Yrotation
										End Site
										{
OFFSET 0 -0.510090 0.000000
										}
									}
								}
								JOINT LThumb
								{
OFFSET 0 0.000000 0.000000
CHANNELS 3 Zrotation Xrotation Yrotation
									End Site
									{
OFFSET 0 -0.517880 0.517880
									}
								}
							}
						}
					}
				}
				JOINT RightCollar
				{
					OFFSET 0 0 0
					CHANNELS 3 Zrotation Yrotation Xrotation
					JOINT RightShoulder
					{
						OFFSET -3.10571 0.91279 -0.33334
CHANNELS 3 Zrotation Xrotation Yrotation
						JOINT RightElbow
						{
OFFSET 0 -5.871200 -0.000000
CHANNELS 3 Zrotation Xrotation Yrotation
							JOINT RightWrist
							{
OFFSET 0 -3.375890 0.000000
CHANNELS 3 Zrotation Xrotation Yrotation
								JOINT rhand
								{
									OFFSET 0 0 0
CHANNELS 3 Zrotation Xrotation Yrotation
									JOINT RFingers
									{
OFFSET 0 -0.603260 0.000000
CHANNELS 3 Zrotation Xrotation Yrotation
										End Site
										{
OFFSET 0 -0.486360 0.000000
										}
									}
								}
								JOINT RThumb
								{
OFFSET 0 0.000000 0.000000
CHANNELS 3 Zrotation Xrotation Yrotation
									End Site
									{
OFFSET 0 -0.493790 0.493790
									}
								}
							}
						}
					}
				}
			}
		}
	}
}
MOTION
Frames: 11
Frame Time: 0.008333333333333333
-11.997000 18.288100 1.630100 0.514900 83.611200 11.632900 0.000000 0.000000 0.000000 -17.647000 -8.603100 -13.653900 3.069500 10.806700 31.630600 1.605200 -4.199900 -22.966400 1.214100 -6.989700 -19.684900 0.000000 0.000000 0.000000 18.762200 14.545000 -21.196500 -3.187800 -10.993000 32.256400 0.359100 10.569800 4.553000 -6.150400 -14.572500 45.582400 0.669400 -1.352100 -8.000300 3.018100 -1.985500 0.464300 2.523800 -0.990900 5.060800 -2.326000 -0.425800 -18.736700 -0.540500 0.317400 20.023300 0.246800 -0.056800 9.415200 -0.000000 -0.000000 0.000000 1.837200 -1.075800 -32.794100 18.143100 -28.340000 4.617000 16.326600 -5.090100 -32.370200 0.000000 0.000000 0.000000 -7.125000 0.000000 0.000000 -19.121400 62.420900 8.256600 -0.000000 -0.000000 0.000000 -2.720300 1.898700 3.368800 -16.329100 -25.964800 -3.788900 -17.885100 12.017200 -28.941600 0.000000 0.000000 0.000000 7.125000 0.000000 -0.000000 7.470600 0.046100 7.528900
-11.564216 18.298000 2.198154 17.119430 85.997975 27.207571 0.000000 0.000000 0.000000 -16.234126 -8.101118 -22.909366 6.767568 15.131915 47.987708 1.056316 -0.540463 -19.260297 1.226394 -7.023546 -19.785288 0.000000 0.000000 0.000000 20.281033 12.456316 -18.175266 -3.072305 -10.811253 31.645803 0.525356 12.728864 4.142221 -5.983448 -14.412314 44.915261 1.003460 -0.350751 -7.508984 2.639269 -0.656214 0.582504 2.103817 -0.320866 4.841540 -2.911954 -2.086757 -18.239275 0.604714 -2.110291 19.188781 0.417714 -1.101019 9.076497 0.000000 0.000000 0.000000 1.643980 -0.266968 -32.562899 18.544630 -28.848818 4.809246 15.363537 -5.767848 -31.554164 0.000000 0.000000 0.000000 -7.125000 0.000000 0.000000 -19.489174 61.415349 7.958038 0.000000 0.000000 0.000000 -1.046110 1.102367 10.854545 -16.876866 -26.695189 -4.031873 -19.303129 9.704494 -30.277995 0.000000 0.000000 0.000000 7.125000 0.000000 0.000000 6.798530 -1.563966 7.030713
-11.043249 18.236370 2.683891 19.515596 84.255237 29.010895 0.000000 0.000000 0.000000 -16.478493 -10.451436 -30.790666 8.664309 16.586811 54.921837 1.194145 1.959272 -21.435544 1.358960 -7.377444 -20.839139 0.000000 0.000000 0.000000 21.372784 11.477242 -15.836821 -3.090402 -10.839960 31.741871 0.636949 13.993337 6.071031 -5.913216 -14.343637 44.632229 0.788249 0.844329 -7.303565 1.829754 0.981849 0.809139 1.569970 0.488482 4.920948 -3.166882 -2.736665 -17.759751 1.249738 -3.092710 19.243808 0.556785 -1.505792 9.042361 0.000000 0.000000 0.000000 1.456579 2.325008 -30.629965 19.348845 -29.849756 5.203367 16.663410 -5.922010 -32.098864 0.000000 0.000000 0.000000 -7.125000 0.000000 0.000000 -18.520562 62.251544 7.913473 0.000000 0.000000 0.000000 -3.762024 -1.949598 22.121032 -17.701842 -27.773655 -4.409398 -20.649597 9.427961 -30.667347 0.000000 0.000000 0.000000 7.125000 0.000000 0.000000 6.074623 -2.221057 6.340763
-10.397009 18.191477 3.116724 13.238198 82.051669 23.140096 0.000000 0.000000 0.000000 -17.736091 -13.664939 -36.105991 6.498787 14.894761 46.952132 1.179640 0.718702 -20.801717 1.526601 -7.801310 -22.112162 0.000000 0.000000 0.000000 22.808623 9.993550 -13.537374 -2.831380 -10.416845 30.337517 0.632717 14.326858 8.941171 -5.845415 -14.276820 44.358123 0.951602 1.484570 -7.363182 1.429278 1.839781 0.605748 1.157159 0.921894 4.742502 -3.172369 -2.668327 -18.040184 1.356512 -3.003423 20.301077 0.601553 -1.443629 9.460724 0.000000 0.000000 0.000000 0.669270 4.241168 -28.348361 16.682191 -26.436833 3.944821 15.491545 -4.855692 -32.188061 0.000000 0.000000 0.000000 -7.125000 0.000000 0.000000 -19.880199 62.039281 8.418770 0.000000 0.000000 0.000000 -6.859249 -4.493078 25.872341 -19.557020 -30.104940 -5.307358 -20.226491 7.811370 -29.943939 0.000000 0.000000 0.000000 7.125000 0.000000 0.000000 6.224753 -1.401249 6.412741
-9.605794 18.180037 3.561192 5.075993 79.711563 15.558805 0.000000 0.000000 0.000000 -20.728864 -14.019527 -38.521656 2.906734 10.539571 30.745222 0.703969 1.589204 -16.497737 1.214149 -6.989185 -19.683568 0.000000 0.000000 0.000000 24.870310 6.977198 -9.905314 -2.096362 -9.063641 25.994923 0.332047 12.581113 12.557047 -5.801234 -14.232897 44.178665 1.223347 1.784926 -7.463827 1.346868 2.213137 0.796642 0.970479 1.113773 5.008192 -2.634199 -2.308329 -18.135655 1.826781 -2.774062 19.847031 0.705005 -1.246729 9.311612 0.000000 0.000000 0.000000 -0.233209 5.138404 -24.395183 14.433462 -23.350957 2.997805 12.829321 -3.255605 -32.376655 0.000000 0.000000 0.000000 -7.125000 0.000000 0.000000 -22.910312 61.550221 9.506066 0.000000 0.000000 0.000000 -8.305164 -6.009677 23.691275 -20.835119 -31.635377 -5.963211 -22.602489 4.901078 -28.565913 0.000000 0.000000 0.000000 7.125000 0.000000 0.000000 4.663719 -0.460439 4.716757
-8.624062 18.155354 4.039444 -1.460077 76.369434 9.852983 0.000000 0.000000 0.000000 -22.743664 -14.335030 -37.834162 0.785440 5.656595 15.791556 0.263572 3.106692 -11.353197 0.976573 -6.290763 -17.630444 0.000000 0.000000 0.000000 26.543078 3.520538 -5.414037 -1.332754 -7.310166 20.637576 -0.180663 9.596573 16.382442 -5.481633 -13.906482 42.864119 1.381881 2.112196 -8.074040 1.420181 2.616482 0.875697 1.033910 1.315855 5.437791 -2.043715 -1.635447 -17.313331 1.748320 -2.001196 19.445078 0.687287 -0.856166 8.996064 0.000000 0.000000 0.000000 -0.359570 5.745134 -22.902667 14.222599 -23.052002 2.914699 12.514639 -2.864077 -33.243715 0.000000 0.000000 0.000000 -7.125000 0.000000 0.000000 -24.042685 62.255464 10.407891 0.000000 0.000000 0.000000 -8.361961 -4.881042 21.247231 -20.678430 -31.450987 -5.881274 -23.924299 4.439805 -27.823433 0.000000 0.000000 0.000000 7.125000 0.000000 0.000000 3.785854 0.036738 3.791714
-7.387078 18.036691 4.682468 -5.229705 70.776225 7.088583 0.000000 0.000000 0.000000 -19.566417 -16.361189 -37.121674 0.729627 5.457406 15.217915 0.280260 3.726010 -12.081099 0.528809 -4.658599 -12.937538 0.000000 0.000000 0.000000 27.521320 1.226154 -0.807987 -1.017586 -6.417774 18.001522 -0.681574 6.824714 19.543708 -4.884619 -13.252750 40.321997 0.404477 2.394406 -8.776657 1.115468 3.093194 0.941407 1.360510 1.520886 5.866569 -1.746574 -0.664550 -17.896246 2.076011 -0.817832 19.363080 0.899665 -0.247176 9.048239 0.000000 0.000000 0.000000 0.993340 6.444306 -22.574095 15.099830 -24.284904 3.266836 13.369107 -3.969586 -32.639957 0.000000 0.000000 0.000000 -7.125000 0.000000 0.000000 -22.570125 61.923754 9.556710 0.000000 0.000000 0.000000 -6.142179 -1.743114 21.271178 -19.398013 -29.910228 -5.227904 -22.090236 7.581910 -26.870054 0.000000 0.000000 0.000000 7.125000 0.000000 0.000000 4.751413 1.395874 4.650407
-5.843460 18.036194 5.555197 -1.510189 66.815526 12.110406 0.000000 0.000000 0.000000 -19.295056 -16.049314 -38.226724 1.652943 8.100659 23.021175 -0.093615 8.262278 -9.653521 0.013584 -0.743873 -2.044406 0.000000 0.000000 0.000000 25.930930 1.992612 4.655856 -0.805927 -5.729052 16.000335 -1.022292 0.900506 19.453520 -4.092892 -12.282917 36.740373 -4.478281 0.944599 -10.767807 0.277124 1.818867 0.125290 3.102249 0.759661 6.033861 -1.256419 0.832536 -18.940988 1.784616 1.171711 19.155151 0.979519 0.680916 9.126509 0.000000 0.000000 0.000000 2.849630 7.440049 -20.907012 14.480081 -23.416509 3.016443 13.982579 -2.557240 -33.297004 0.000000 0.000000 0.000000 -7.125000 0.000000 0.000000 -22.515208 62.677420 9.932887 0.000000 0.000000 0.000000 -2.493015 3.887030 20.715480 -17.532816 -27.554629 -4.331074 -19.081821 10.807035 -27.339917 0.000000 0.000000 0.000000 7.125000 0.000000 0.000000 6.598526 1.463543 6.471005
-4.398346 18.198112 6.240918 -0.866091 63.603499 12.878446 0.000000 0.000000 0.000000 -19.633932 -15.274963 -35.751228 2.548243 9.925002 28.734226 0.242109 5.902958 -13.309655 0.000505 0.147951 0.406645 0.000000 0.000000 0.000000 23.076958 3.777702 -0.142352 -2.852020 -10.446233 30.439488 -1.914715 -10.271544 24.858253 -2.155586 -9.182137 26.367261 -5.824554 0.253890 -11.345618 -0.385442 1.129731 -0.993400 3.057075 0.447152 5.223233 -0.278929 1.934320 -19.651455 1.008642 2.604187 20.408127 0.765667 1.332512 9.694156 0.000000 0.000000 0.000000 4.002336 3.909351 -18.850974 12.942617 -21.202905 2.432655 14.636037 0.356943 -34.538364 0.000000 0.000000 0.000000 -7.125000 0.000000 0.000000 -23.021404 63.974353 10.867588 0.000000 0.000000 0.000000 0.505260 9.030293 14.579311 -15.635711 -25.024180 -3.490508 -12.822784 9.964411 -25.185633 0.000000 0.000000 0.000000 7.125000 0.000000 0.000000 10.199797 4.577229 9.508560
-3.185272 18.339747 6.687460 -0.166417 58.044924 12.542912 0.000000 0.000000 0.000000 -21.708176 -12.303899 -30.488226 2.668924 10.138748 29.427260 0.879514 3.900975 -19.540101 0.006352 0.514589 1.413942 0.000000 0.000000 0.000000 18.401031 8.123314 -13.035611 -8.284697 -16.324258 53.581071 -0.450643 -4.137929 11.931716 -1.299941 -7.222736 20.377038 -5.901619 -0.039591 -11.488904 -0.379069 0.753821 -1.133401 3.050502 0.264028 5.189706 1.009551 3.187181 -19.631273 0.200496 4.117507 19.558528 0.470962 2.035797 9.427836 0.000000 0.000000 0.000000 4.844579 0.268413 -25.354694 17.092125 -26.978910 4.129088 15.153922 -4.225829 -33.986459 0.000000 0.000000 0.000000 -7.125000 0.000000 0.000000 -21.897325 63.611391 10.125632 0.000000 0.000000 0.000000 -0.895495 7.990821 15.191430 -16.357231 -26.002591 -3.801275 -9.444839 10.300098 -25.882008 0.000000 0.000000 0.000000 7.125000 0.000000 0.000000 12.268300 4.294726 11.589128
-2.109188 18.349212 7.050962 -1.858588 57.664783 9.150003 0.000000 0.000000 0.000000 -22.711892 -10.571298 -24.787517 2.837052 10.426447 30.369022 1.430281 1.120099 -23.035092 0.000735 -0.098782 -0.271504 0.000000 0.000000 0.000000 17.082546 9.808675 -24.056378 -9.465928 -17.098202 57.687704 -0.018634 2.282685 -2.696606 -2.206080 -9.282535 26.683396 -4.994661 -1.216442 -10.628316 1.119910 -1.062881 -0.750917 3.835622 -0.644848 5.295331 1.756073 4.041446 -18.448973 -0.121069 5.179910 19.451544 0.358216 2.558398 9.211577 0.000000 0.000000 0.000000 5.247903 -7.859564 -31.856166 17.597213 -27.638278 4.360762 15.428234 -5.324358 -33.801821 0.000000 0.000000 0.000000 -7.125000 0.000000 0.000000 -21.415396 63.515038 9.844050 0.000000 0.000000 0.000000 -2.763197 5.007589 13.652115 -19.288024 -29.774800 -5.173187 -9.846858 7.999147 -23.865702 0.000000 0.000000 0.000000 7.125000 0.000000 0.000000 11.967615 6.232956 10.842545
